# Blender v2.92.0 OBJ File: ''
# www.blender.org
mtllib TankGunEnemy.mtl
o TankGun_polygon0.001
v 0.091129 1.246203 1.882171
v 0.071781 1.212731 0.405921
v 0.181484 1.089678 1.882171
v 0.142885 1.089678 0.405921
v 0.091129 0.933153 1.882171
v 0.071781 0.966528 0.405921
v -0.089678 0.933153 1.882171
v -0.070330 0.966528 0.405921
v -0.180033 1.089678 1.882171
v -0.141434 1.089678 0.405921
v -0.089678 1.246203 1.882171
v -0.070330 1.212731 0.405921
v 0.488730 1.341782 0.488053
v -0.487279 1.341782 0.488053
v 0.424301 1.398762 0.423624
v -0.422850 1.398762 0.423624
v 0.424301 1.398762 -0.423624
v -0.422850 1.398762 -0.423624
v 0.488730 1.341782 -0.488053
v -0.487279 1.341782 -0.488053
v -0.556254 0.756893 -0.556931
v -0.556254 0.756893 0.556931
v 0.557705 0.756893 -0.556931
v 0.557705 0.756893 0.556931
vt 0.096802 0.056519
vt 0.066528 0.056519
vt 0.081665 0.056519
vt 0.142090 0.056519
vt 0.111938 0.056519
vt 0.126953 0.056519
vt 0.833374 0.264771
vt 1.000000 0.114014
vt 1.000000 0.264771
vt 0.833374 0.114014
vt 0.666626 0.264771
vt 0.666626 0.114014
vt 0.500000 0.264771
vt 0.500000 0.114014
vt 0.333374 0.264771
vt 0.333374 0.114014
vt 0.166626 0.264771
vt 0.166626 0.114014
vt 0.000000 0.264771
vt 0.000000 0.114014
vt 0.885986 0.654053
vt 0.944702 0.322388
vt 0.944702 0.677612
vt 0.885986 0.345947
vt 0.114014 0.654053
vt 0.114014 0.345947
vt 0.055298 0.677612
vt 0.055298 0.322388
vt -0.007446 0.297363
vt 1.007446 0.297363
vt -0.007446 0.702637
vt 0.061890 0.706787
vt 1.000000 0.293213
vt 0.000000 0.293213
vt 0.938110 0.706787
vt 0.061890 0.706787
vt 1.000000 0.293213
vt 0.938110 0.706787
vt 0.000000 0.293213
vt 1.007446 0.702637
vn 0.0000 0.0000 1.0000
vn 0.7999 0.0000 0.6001
vn 0.4997 0.8658 -0.0261
vn 0.4000 0.6927 0.6001
vn 0.9996 0.0002 -0.0261
vn 0.3999 -0.6927 0.6001
vn 0.4998 -0.8657 -0.0261
vn -0.3999 -0.6927 0.6001
vn -0.4998 -0.8657 -0.0261
vn -0.7999 0.0000 0.6001
vn -0.9996 0.0002 -0.0262
vn -0.3999 0.6927 0.6001
vn -0.4996 0.8658 -0.0262
vn 0.2762 0.9205 0.2762
vn -0.6193 0.4827 0.6193
vn 0.6193 0.4827 0.6193
vn -0.2762 0.9205 0.2762
vn 0.2762 0.9205 -0.2762
vn -0.2762 0.9205 -0.2762
vn 0.6193 0.4827 -0.6193
vn -0.6193 0.4827 -0.6193
vn -0.6975 0.1644 -0.6974
vn -0.6975 0.1644 0.6974
vn 0.6975 0.1644 -0.6974
vn 0.6975 0.1644 0.6974
usemtl tank_mat
s off
f 9/1/1 1/2/1 11/3/1
f 3/4/1 1/2/1 9/1/1
f 7/5/1 3/4/1 9/1/1
f 5/6/1 3/4/1 7/5/1
s 1
f 3/7/2 2/8/3 1/9/4
f 4/10/5 2/8/3 3/7/2
f 5/11/6 4/10/5 3/7/2
f 6/12/7 4/10/5 5/11/6
f 7/13/8 6/12/7 5/11/6
f 8/14/9 6/12/7 7/13/8
f 9/15/10 8/14/9 7/13/8
f 10/16/11 8/14/9 9/15/10
f 11/17/12 10/16/11 9/15/10
f 12/18/13 10/16/11 11/17/12
f 1/19/4 12/18/13 11/17/12
f 2/20/3 12/18/13 1/19/4
f 15/21/14 14/22/15 13/23/16
f 16/24/17 14/22/15 15/21/14
f 17/25/18 16/24/17 15/21/14
f 18/26/19 16/24/17 17/25/18
f 19/27/20 18/26/19 17/25/18
f 20/28/21 18/26/19 19/27/20
f 20/28/21 16/24/17 18/26/19
f 14/22/15 16/24/17 20/28/21
f 21/29/22 14/22/15 20/28/21
f 22/30/23 14/22/15 21/29/22
f 13/23/16 17/25/18 15/21/14
f 19/27/20 17/25/18 13/23/16
f 23/31/24 19/27/20 13/23/16
f 20/32/21 23/33/24 21/34/22
f 19/35/20 23/33/24 20/32/21
f 14/36/15 24/37/25 13/38/16
f 22/39/23 24/37/25 14/36/15
f 13/23/16 24/40/25 23/31/24
