# Blender v2.92.0 OBJ File: ''
# www.blender.org
mtllib TankBodyEnemy.mtl
o TankBody.001_polygon0
v 0.670601 0.379994 1.138338
v 0.661120 0.396246 1.188740
v 0.670601 0.759505 0.920286
v 0.661120 0.792493 0.961014
v 0.670601 0.759505 -0.920286
v 0.661120 0.792493 -0.961014
v 0.670601 0.379994 -1.138338
v 0.661120 0.396247 -1.188740
v 0.670601 0.000000 -0.920286
v 0.661120 0.000000 -0.961014
v -0.669150 0.000000 -0.920286
v -0.659669 0.000000 -0.961014
v -0.669150 0.379994 -1.138338
v -0.659669 0.396247 -1.188740
v -0.669150 0.759505 -0.920286
v -0.659669 0.792493 -0.961014
v -0.669150 0.759505 0.920286
v -0.659669 0.792493 0.961014
v -0.669150 0.379994 1.138338
v -0.659669 0.396246 1.188740
v -0.990616 0.379994 -1.138338
v -0.990616 0.000000 -0.920286
v -0.990616 0.759505 -0.920286
v -0.990616 0.379994 1.138338
v -0.990616 0.759505 0.920286
v -0.669150 -0.000000 0.920286
v -0.990616 -0.000000 0.920286
v 0.990616 0.759505 -0.920286
v 0.990616 0.759505 0.920286
v 0.670601 -0.000000 0.920286
v 0.661120 -0.000000 0.961014
v -0.659669 -0.000000 0.961014
v 0.990616 0.000000 -0.920286
v 0.990616 0.379994 -1.138338
v 0.990616 -0.000000 0.920286
v 0.990616 0.379994 1.138338
vt 0.156250 0.562500
vt 0.156250 0.562500
vt 0.156250 0.562500
vt 0.156250 0.562500
vt 1.500000 0.293579
vt -0.500000 0.707153
vt -0.500000 0.293579
vt 1.500000 0.707153
vt 0.156250 0.562500
vt 0.156250 0.562500
vt 0.156250 0.562500
vt 0.156250 0.562500
vt 1.000000 0.294678
vt 0.000000 0.705322
vt 1.000000 0.705322
vt 0.000000 0.294678
vt 1.000000 0.289917
vt 0.000000 0.710083
vt 1.000000 0.710083
vt 0.000000 0.289917
vt 1.000000 0.710083
vt 0.000000 0.289917
vt 1.000000 0.289917
vt 0.000000 0.710083
vt 1.000000 0.705322
vt 0.000000 0.294678
vt 1.000000 0.294678
vt 0.000000 0.705322
vt 0.095825 0.767578
vt 1.000000 0.989258
vt 0.904175 0.767578
vt 0.000000 0.989258
vt 0.904175 0.767578
vt 0.000000 0.989258
vt 0.095825 0.767578
vt 1.000000 0.989258
vt 0.904175 1.210571
vt 0.095825 1.210571
vt 0.095825 1.210571
vt 0.904175 1.210571
vt 0.156250 0.562500
vt 0.156250 0.562500
vt 0.156250 0.562500
vt 0.156250 0.562500
vt 0.156250 0.562500
vt 0.156250 0.562500
vt 0.156250 0.562500
vt 0.156250 0.562500
vt 0.156250 0.562500
vt 0.156250 0.562500
vt 0.156250 0.562500
vt 0.156250 0.562500
vt 0.156250 0.562500
vt 0.156250 0.562500
vt 0.156250 0.562500
vt 0.156250 0.562500
vt 0.162231 0.729492
vt 0.000000 1.282104
vt 0.162231 1.282104
vt 0.000000 0.729492
vt 0.162231 0.812378
vt 0.000000 1.213257
vt 0.162231 1.213257
vt 0.000000 0.812378
vt 0.162231 1.213257
vt 0.000000 0.812378
vt 0.162231 0.812378
vt 0.000000 1.213257
vt 0.162231 1.282104
vt 0.000000 0.729492
vt 0.162231 0.729492
vt 0.000000 1.282104
vt 0.978760 0.710083
vt 0.021240 1.000000
vt 0.021240 0.710083
vt 0.978760 1.000000
vt 0.838501 0.729492
vt 1.000000 1.282104
vt 1.000000 0.729492
vt 0.838501 1.282104
vt 0.838501 1.282104
vt 1.000000 0.729492
vt 1.000000 1.282104
vt 0.838501 0.729492
vt 0.838501 0.812378
vt 1.000000 1.213257
vt 1.000000 0.812378
vt 0.838501 1.213257
vt 0.978760 0.000000
vt 0.021240 0.290649
vt 0.021240 0.000000
vt 0.978760 0.290649
vt 0.838501 1.213257
vt 1.000000 0.812378
vt 1.000000 1.213257
vt 0.838501 0.812378
vn 0.9658 -0.1290 0.2248
vn 0.9663 -0.1282 0.2231
vn 0.0000 1.0000 0.0000
vn -0.9658 -0.1292 0.2248
vn -0.9664 -0.1280 0.2230
vn 0.0000 -0.4983 -0.8670
vn 0.0000 0.4983 -0.8670
vn 0.0000 0.4983 0.8670
vn -0.0000 -0.4983 0.8670
vn -1.0000 -0.0000 0.0000
vn 1.0000 -0.0000 0.0000
vn 0.7492 0.5894 0.3022
vn 0.5549 0.0069 0.8319
vn 0.7535 -0.0271 0.6569
vn 0.5533 0.7168 0.4243
vn 0.7492 0.5894 -0.3022
vn 0.5533 0.7168 -0.4243
vn 0.7535 -0.0270 -0.6568
vn 0.5549 0.0069 -0.8319
vn 0.4865 -0.4349 -0.7577
vn 0.6892 -0.3610 -0.6282
vn -0.7535 -0.0271 -0.6569
vn -0.6893 -0.3609 -0.6282
vn -0.4865 -0.4348 -0.7578
vn -0.5549 0.0069 -0.8319
vn -0.7492 0.5894 -0.3022
vn -0.5533 0.7168 -0.4243
vn -0.7492 0.5894 0.3022
vn -0.5533 0.7168 0.4243
vn -0.7535 -0.0270 0.6568
vn -0.5549 0.0069 0.8319
vn -0.6103 0.0002 -0.7921
vn -0.7996 -0.2988 -0.5208
vn -0.6098 0.6859 -0.3970
vn -0.6103 0.0002 0.7921
vn -0.6098 0.6859 0.3970
vn -0.7996 -0.2988 0.5208
vn -0.4865 -0.4349 0.7577
vn 0.6098 0.6859 -0.3970
vn 0.6098 0.6859 0.3970
vn 0.6103 0.0002 -0.7921
vn 0.7996 -0.2988 -0.5208
vn 0.7996 -0.2988 0.5208
vn 0.6103 0.0002 0.7921
vn 0.4865 -0.4348 0.7578
usemtl tank_mat
s off
f 1/1/1 31/2/1 30/3/1
f 2/4/2 31/2/2 1/1/2
f 18/5/3 6/6/3 16/7/3
f 4/8/3 6/6/3 18/5/3
f 20/9/4 26/10/4 32/11/4
f 19/12/5 26/10/5 20/9/5
f 10/13/6 14/14/6 8/15/6
f 12/16/6 14/14/6 10/13/6
f 8/17/7 16/18/7 6/19/7
f 14/20/7 16/18/7 8/17/7
f 4/21/8 20/22/8 2/23/8
f 18/24/8 20/22/8 4/21/8
f 2/25/9 32/26/9 31/27/9
f 20/28/9 32/26/9 2/25/9
f 27/29/10 21/30/10 22/31/10
f 24/32/10 21/30/10 27/29/10
f 33/33/11 36/34/11 35/35/11
f 34/36/11 36/34/11 33/33/11
f 23/37/10 24/32/10 25/38/10
f 21/30/10 24/32/10 23/37/10
f 29/39/11 34/36/11 28/40/11
f 36/34/11 34/36/11 29/39/11
s 1
f 3/41/12 2/4/13 1/1/14
f 4/42/15 2/4/13 3/41/12
f 5/43/16 4/42/15 3/41/12
f 6/44/17 4/42/15 5/43/16
f 7/45/18 6/44/17 5/43/16
f 8/46/19 6/44/17 7/45/18
f 9/47/20 8/46/19 7/45/18
f 10/48/21 8/46/19 9/47/20
f 13/49/22 12/50/23 11/51/24
f 14/52/25 12/50/23 13/49/22
f 15/53/26 14/52/25 13/49/22
f 16/54/27 14/52/25 15/53/26
f 17/55/28 16/54/27 15/53/26
f 18/56/29 16/54/27 17/55/28
f 19/12/30 18/56/29 17/55/28
f 20/9/31 18/56/29 19/12/30
f 11/57/24 21/58/32 13/59/22
f 22/60/33 21/58/32 11/57/24
f 13/61/22 23/62/34 15/63/26
f 21/64/32 23/62/34 13/61/22
f 17/65/28 24/66/35 19/67/30
f 25/68/36 24/66/35 17/65/28
f 19/69/30 27/70/37 26/71/38
f 24/72/35 27/70/37 19/69/30
f 3/73/12 28/74/39 5/75/16
f 29/76/40 28/74/39 3/73/12
f 9/77/20 34/78/41 33/79/42
f 7/80/18 34/78/41 9/77/20
f 1/81/14 35/82/43 36/83/44
f 30/84/45 35/82/43 1/81/14
f 7/85/18 28/86/39 34/87/41
f 5/88/16 28/86/39 7/85/18
f 25/89/36 15/90/26 23/91/34
f 17/92/28 15/90/26 25/89/36
f 3/93/12 36/94/44 29/95/40
f 1/96/14 36/94/44 3/93/12
