mtllib shell.mtl

v 1.499066 1.499066 -4.000000
v -1.499066 1.499066 -4.000000
v 0.000000 2.120000 -4.000000
v 1.499066 1.499066 -4.000000
v 0.000000 2.120000 -4.000000
v 1.499066 1.499066 1.733187
v 0.000000 2.120000 1.733187
v 1.499066 1.499066 1.733187
v -1.499066 1.499066 -4.000000
v 0.000000 2.120000 1.733187
v -1.499066 1.499066 1.733187
v 0.000000 2.120000 1.733187
v -2.120000 0.000000 -4.000000
v -2.120000 0.000000 1.733187
v -1.499066 -1.499066 -4.000000
v -1.499066 -1.499066 1.733187
v 0.000000 -2.120000 -4.000000
v 0.000000 -2.120000 1.733187
v 1.499066 -1.499066 -4.000000
v 0.000000 -2.120000 1.733187
v 1.499066 -1.499066 1.733187
v 0.000000 -2.120000 1.733187
v 2.120000 0.000000 -4.000000
v 1.499066 -1.499066 1.733187
v 2.120000 0.000000 -4.000000
v 2.120000 0.000000 1.733187
v 1.499066 -1.499066 1.733187
v 2.120000 0.000000 -4.000000
v 2.120000 0.000000 1.733187
v 1.499066 1.499066 1.733187
v 2.120000 0.000000 1.733187
v 1.499066 1.499066 1.733187
v 0.000000 2.120000 1.733187
v 0.960145 0.960144 3.295471
v 0.000000 2.120000 1.733187
v 0.000000 1.357849 3.295471
v 0.960145 0.960144 3.295471
v 0.000000 2.120000 1.733187
v 0.000000 1.357849 3.295471
v -0.960145 0.960144 3.295471
v 0.000000 1.357849 3.295471
v -1.357850 0.000000 3.295470
v -0.960145 -0.960146 3.295470
v 0.000000 -2.120000 1.733187
v 0.000000 -2.120000 1.733187
v 0.000000 -1.357851 3.295470
v 0.000000 -2.120000 1.733187
v 1.499066 -1.499066 1.733187
v 0.000000 -1.357851 3.295470
v 1.499066 -1.499066 1.733187
v 0.960145 -0.960146 3.295471
v 0.000000 -1.357851 3.295470
v 1.499066 -1.499066 1.733187
v 2.120000 0.000000 1.733187
v 0.960145 -0.960146 3.295471
v 2.120000 0.000000 1.733187
v 1.357850 0.000000 3.295470
v 0.960145 -0.960146 3.295471
v 2.120000 0.000000 1.733187
v 1.499066 1.499066 1.733187
v 1.499066 1.499066 1.733187
v 0.960145 0.960144 3.295471
v 0.240036 0.240036 4.000000
v 0.960145 0.960144 3.295471
v 0.000000 0.339462 4.000000
v 0.960145 0.960144 3.295471
v 0.000000 1.357849 3.295471
v 0.000000 0.339462 4.000000
v -0.240036 0.240036 4.000000
v 0.000000 0.339462 4.000000
v 0.000000 1.357849 3.295471
v 0.000000 0.339462 4.000000
v -0.339462 0.000000 4.000000
v -0.240036 -0.240036 4.000000
v 0.000000 -0.339463 4.000000
v 0.000000 -1.357851 3.295470
v 0.000000 -0.339463 4.000000
v 0.240036 -0.240036 4.000000
v 0.000000 -0.339463 4.000000
v 0.960145 -0.960146 3.295471
v 0.000000 -1.357851 3.295470
v 0.960145 -0.960146 3.295471
v 0.000000 -0.339463 4.000000
v 0.339462 0.000000 4.000000
v 0.960145 -0.960146 3.295471
v 0.240036 0.240036 4.000000
v 0.339462 0.000000 4.000000
v 0.960145 0.960144 3.295471
v 0.960145 0.960144 3.295471
v 0.339462 0.000000 4.000000
v 2.120000 0.000000 -4.000000
v -2.120000 0.000000 -4.000000
v 2.120000 0.000000 -4.000000
v 1.499066 -1.499066 -4.000000
v -1.499066 -1.499066 -4.000000
v 2.120000 0.000000 -4.000000
v 0.000000 -2.120000 -4.000000
v 0.240036 0.240036 4.000000
v 0.000000 0.339462 4.000000
v 0.339462 0.000000 4.000000
v 0.339462 0.000000 4.000000
v 0.240036 0.240036 4.000000
v 0.240036 0.240036 4.000000
v 0.339462 0.000000 4.000000
v 0.000000 -0.339463 4.000000

vt 1.000000 0.146447
vt 1.000000 0.853553
vt 1.000000 0.500000
vt 1.000000 0.146447
vt 1.000000 0.500000
vt 0.188404 0.146447
vt 0.188404 0.500000
vt 0.188404 0.146447
vt 1.000000 0.853553
vt 0.188404 0.500000
vt 0.188404 0.853553
vt 0.188404 0.500000
vt 1.000000 1.000000
vt 0.188404 1.000000
vt 1.000000 0.853553
vt 0.188404 0.853553
vt 1.000000 0.500000
vt 0.188404 0.500000
vt 1.000000 0.146447
vt 0.188404 0.500000
vt 0.188404 0.146447
vt 0.188404 0.500000
vt 1.000000 0.000000
vt 0.188404 0.146447
vt 1.000000 0.000000
vt 0.188404 0.000000
vt 0.188404 0.146447
vt 1.000000 0.000000
vt 0.188404 0.000000
vt 0.188404 0.146447
vt 0.188404 0.000000
vt 0.188404 0.146447
vt 0.188404 0.500000
vt 0.002905 0.273551
vt 0.188404 0.500000
vt 0.002905 0.500000
vt 0.002905 0.273551
vt 0.188404 0.500000
vt 0.002905 0.500000
vt 0.002905 0.726449
vt 0.002905 0.500000
vt 0.002905 0.820248
vt 0.002905 0.726449
vt 0.188404 0.500000
vt 0.188404 0.500000
vt 0.002905 0.500000
vt 0.188404 0.500000
vt 0.188404 0.146447
vt 0.002905 0.500000
vt 0.188404 0.146447
vt 0.002905 0.273551
vt 0.002905 0.500000
vt 0.188404 0.146447
vt 0.188404 0.000000
vt 0.002905 0.273551
vt 0.188404 0.000000
vt 0.002905 0.179752
vt 0.002905 0.273551
vt 0.188404 0.000000
vt 0.188404 0.146447
vt 0.188404 0.146447
vt 0.002905 0.273551
vt -0.078628 0.443388
vt 0.002905 0.273551
vt -0.078627 0.500000
vt 0.002905 0.273551
vt 0.002905 0.500000
vt -0.078627 0.500000
vt -0.078627 0.556612
vt -0.078627 0.500000
vt 0.002905 0.500000
vt -0.078627 0.500000
vt -0.078627 0.580062
vt -0.078627 0.556612
vt -0.078627 0.500000
vt 0.002905 0.500000
vt -0.078627 0.500000
vt -0.078627 0.443388
vt -0.078627 0.500000
vt 0.002905 0.273551
vt 0.002905 0.500000
vt 0.002905 0.273551
vt -0.078627 0.500000
vt -0.078627 0.419938
vt 0.002905 0.273551
vt -0.078628 0.443388
vt -0.078627 0.419938
vt 0.002905 0.273551
vt 0.002905 0.273551
vt -0.078627 0.419938
vt 1.000000 0.000000
vt 1.000000 1.000000
vt 1.000000 0.000000
vt 1.000000 0.146447
vt 1.000000 0.853553
vt 1.000000 0.000000
vt 1.000000 0.500000
vt -0.078628 0.443388
vt -0.078627 0.500000
vt -0.078627 0.419938
vt -0.078627 0.419938
vt -0.078628 0.443388
vt -0.078628 0.443388
vt -0.078627 0.419938
vt -0.078627 0.500000

vn 0.000000 0.000000 -1.000000
vn 0.000000 0.000000 -1.000000
vn 0.000000 0.000000 -1.000000
vn 0.797175 0.603748 0.000000
vn 0.136774 0.990602 0.000000
vn 0.684307 0.693093 0.226596
vn -0.006213 0.973969 0.226596
vn 0.684307 0.693093 0.226596
vn -0.603748 0.797175 0.000000
vn -0.006213 0.973969 0.226596
vn -0.693093 0.684307 0.226596
vn -0.006213 0.973969 0.226596
vn -0.990602 0.136774 0.000000
vn -0.973969 -0.006213 0.226596
vn -0.797175 -0.603748 0.000000
vn -0.684307 -0.693093 0.226596
vn -0.136774 -0.990602 0.000000
vn 0.006213 -0.973969 0.226596
vn 0.603748 -0.797175 0.000000
vn 0.006213 -0.973969 0.226596
vn 0.693093 -0.684307 0.226596
vn 0.006213 -0.973969 0.226596
vn 0.990602 -0.136774 0.000000
vn 0.693093 -0.684307 0.226596
vn 0.990602 -0.136774 0.000000
vn 0.973969 0.006213 0.226596
vn 0.693093 -0.684307 0.226596
vn 0.990602 -0.136774 0.000000
vn 0.973969 0.006213 0.226596
vn 0.684307 0.693093 0.226596
vn 0.973969 0.006213 0.226596
vn 0.684307 0.693093 0.226596
vn -0.006213 0.973969 0.226596
vn 0.477770 0.553657 0.682055
vn -0.006213 0.973969 0.226596
vn -0.075489 0.786377 0.613117
vn 0.477770 0.553657 0.682055
vn -0.006213 0.973969 0.226596
vn -0.075489 0.786377 0.613117
vn -0.549190 0.518717 0.655227
vn -0.075489 0.786377 0.613117
vn -0.755125 -0.021547 0.655227
vn -0.477770 -0.553657 0.682055
vn 0.006213 -0.973969 0.226596
vn 0.006213 -0.973969 0.226596
vn 0.075489 -0.786377 0.613117
vn 0.006213 -0.973969 0.226596
vn 0.693093 -0.684307 0.226596
vn 0.075489 -0.786377 0.613117
vn 0.693093 -0.684307 0.226596
vn 0.549190 -0.518717 0.655227
vn 0.075489 -0.786377 0.613117
vn 0.693093 -0.684307 0.226596
vn 0.973969 0.006213 0.226596
vn 0.549190 -0.518717 0.655227
vn 0.973969 0.006213 0.226596
vn 0.755125 0.021548 0.655227
vn 0.549190 -0.518717 0.655227
vn 0.973969 0.006213 0.226596
vn 0.684307 0.693093 0.226596
vn 0.684307 0.693093 0.226596
vn 0.477770 0.553657 0.682055
vn 0.165487 0.165487 0.972228
vn 0.477770 0.553657 0.682055
vn 0.000000 0.466334 0.884609
vn 0.477770 0.553657 0.682055
vn -0.075489 0.786377 0.613117
vn 0.000000 0.466334 0.884609
vn -0.283841 0.214969 0.934464
vn 0.000000 0.466334 0.884609
vn -0.075489 0.786377 0.613117
vn 0.000000 0.466334 0.884609
vn -0.293736 -0.040556 0.955026
vn -0.165487 -0.165487 0.972228
vn 0.000000 -0.466334 0.884609
vn 0.075489 -0.786377 0.613117
vn 0.000000 -0.466334 0.884609
vn 0.283841 -0.214969 0.934464
vn 0.000000 -0.466334 0.884609
vn 0.549190 -0.518717 0.655227
vn 0.075489 -0.786377 0.613117
vn 0.549190 -0.518717 0.655227
vn 0.000000 -0.466334 0.884609
vn 0.293736 0.040556 0.955026
vn 0.549190 -0.518717 0.655227
vn 0.165487 0.165487 0.972228
vn 0.293736 0.040556 0.955026
vn 0.477770 0.553657 0.682055
vn 0.477770 0.553657 0.682055
vn 0.293736 0.040556 0.955026
vn 0.000000 0.000000 -1.000000
vn 0.000000 0.000000 -1.000000
vn 0.000000 0.000000 -1.000000
vn 0.000000 0.000000 -1.000000
vn 0.000000 0.000000 -1.000000
vn 0.000000 0.000000 -1.000000
vn 0.000000 0.000000 -1.000000
vn 0.165487 0.165487 0.972228
vn 0.000000 0.466334 0.884609
vn 0.293736 0.040556 0.955026
vn 0.293736 0.040556 0.955026
vn 0.165487 0.165487 0.972228
vn 0.165487 0.165487 0.972228
vn 0.293736 0.040556 0.955026
vn 0.000000 -0.466334 0.884609

g polygon0
s 1
usemtl mat1
f 1/1/1 2/2/2 3/3/3
f 4/4/4 5/5/5 6/6/6
f 5/5/5 7/7/7 8/8/8
f 5/5/5 9/9/9 10/10/10
f 9/9/9 11/11/11 12/12/12
f 9/9/9 13/13/13 11/11/11
f 13/13/13 14/14/14 11/11/11
f 13/13/13 15/15/15 14/14/14
f 15/15/15 16/16/16 14/14/14
f 15/15/15 17/17/17 16/16/16
f 17/17/17 18/18/18 16/16/16
f 17/17/17 19/19/19 20/20/20
f 19/19/19 21/21/21 22/22/22
f 19/19/19 23/23/23 24/24/24
f 25/25/25 26/26/26 27/27/27
f 28/28/28 4/4/4 29/29/29
f 4/4/4 30/30/30 31/31/31
f 32/32/32 33/33/33 34/34/34
f 35/35/35 36/36/36 37/37/37
f 38/38/38 11/11/11 39/39/39
f 11/11/11 40/40/40 41/41/41
f 11/11/11 14/14/14 40/40/40
f 14/14/14 42/42/42 40/40/40
f 14/14/14 16/16/16 42/42/42
f 16/16/16 43/43/43 42/42/42
f 16/16/16 44/44/44 43/43/43
f 45/45/45 46/46/46 43/43/43
f 47/47/47 48/48/48 49/49/49
f 50/50/50 51/51/51 52/52/52
f 53/53/53 54/54/54 55/55/55
f 56/56/56 57/57/57 58/58/58
f 59/59/59 60/60/60 57/57/57
f 61/61/61 62/62/62 57/57/57
f 63/63/63 64/64/64 65/65/65
f 66/66/66 67/67/67 68/68/68
f 69/69/69 70/70/70 40/40/40
f 71/71/71 40/40/40 72/72/72
f 73/73/73 69/69/69 42/42/42
f 40/40/40 42/42/42 69/69/69
f 74/74/74 73/73/73 43/43/43
f 42/42/42 43/43/43 73/73/73
f 74/74/74 43/43/43 75/75/75
f 43/43/43 76/76/76 77/77/77
f 78/78/78 79/79/79 80/80/80
f 81/81/81 82/82/82 83/83/83
f 84/84/84 78/78/78 57/57/57
f 85/85/85 57/57/57 78/78/78
f 86/86/86 87/87/87 88/88/88
f 57/57/57 89/89/89 90/90/90
f 91/91/91 92/92/92 2/2/2
f 93/93/93 2/2/2 1/1/1
f 94/94/94 95/95/95 92/92/92
f 94/94/94 92/92/92 96/96/96
f 94/94/94 97/97/97 95/95/95
f 69/69/69 98/98/98 99/99/99
f 100/100/100 74/74/74 78/78/78
f 73/73/73 101/101/101 102/102/102
f 73/73/73 103/103/103 69/69/69
f 73/73/73 74/74/74 104/104/104
f 78/78/78 74/74/74 105/105/105

