# Blender v2.92.0 OBJ File: ''
# www.blender.org
mtllib Block.mtl
o Cube.001
v -1.007020 1.598190 1.007021
v -1.006998 -0.007818 -1.006998
v -1.006998 -0.007818 1.006998
v 1.007020 1.598190 1.007021
v 1.006998 -0.007818 1.006998
v -1.007020 1.598190 -1.007020
v 1.006998 -0.007818 -1.006998
v 1.007020 1.598190 -1.007020
v 1.573011 0.036176 1.573011
v -1.573011 0.036177 -1.573011
v -1.573011 0.036176 1.573011
v 1.573011 0.036177 -1.573011
v -1.002717 1.718913 1.002717
v 1.002717 1.718913 1.002717
v -0.999294 1.819827 0.999294
v 0.999294 1.819827 0.999294
v -0.973560 1.894636 0.973560
v 0.973560 1.894636 0.973560
v -0.865871 1.924674 0.865872
v 1.002717 1.718913 -1.002716
v 0.999294 1.819827 -0.999294
v 0.973560 1.894636 -0.973560
v 0.865871 1.924674 0.865872
v -1.002717 1.718913 -1.002716
v -0.999294 1.819827 -0.999294
v -0.973560 1.894636 -0.973560
v -0.865871 1.924674 -0.865871
v 0.865871 1.924674 -0.865871
vt 0.145670 0.112750
vt 0.112693 0.156199
vt 0.112693 0.112750
vt 0.143998 0.112384
vt 0.111021 0.155833
vt 0.111021 0.112384
vt 0.145335 0.112405
vt 0.112358 0.155854
vt 0.112358 0.112405
vt 0.144332 0.112729
vt 0.111356 0.156177
vt 0.111356 0.112729
vt 0.390958 0.029162
vt 0.367978 0.052142
vt 0.367978 0.029162
vt 0.145670 0.156199
vt 0.143998 0.155833
vt 0.145335 0.155854
vt 0.144332 0.156177
vt 0.390958 0.052142
vt 0.146564 0.155296
vt 0.146564 0.112920
vt 0.150702 0.153770
vt 0.155005 0.156175
vt 0.115427 0.150795
vt 0.112963 0.155055
vt 0.152536 0.151764
vt 0.118317 0.148190
vt 0.146898 0.155641
vt 0.146898 0.113265
vt 0.151036 0.154115
vt 0.156800 0.114800
vt 0.157190 0.154168
vt 0.152238 0.116992
vt 0.149642 0.148995
vt 0.148235 0.155662
vt 0.148235 0.113286
vt 0.152373 0.154136
vt 0.110775 0.152948
vt 0.115683 0.116271
vt 0.111118 0.113907
vt 0.118505 0.119007
vt 0.147901 0.155318
vt 0.147901 0.112941
vt 0.152039 0.153791
vt 0.113303 0.111900
vt 0.154613 0.112693
vt 0.149419 0.119630
vt 0.150702 0.114447
vt 0.151036 0.114792
vt 0.152373 0.114813
vt 0.152039 0.114468
vn -1.0000 -0.0000 -0.0000
vn 0.0000 -0.0000 1.0000
vn 0.0000 -0.0000 -1.0000
vn 1.0000 -0.0000 -0.0000
vn 0.0000 1.0000 0.0000
vn 0.7038 -0.0963 0.7038
vn -0.7063 0.0492 0.7063
vn -0.7038 -0.0963 0.7038
vn 0.7063 0.0492 0.7063
vn -0.6884 0.2284 0.6884
vn 0.6884 0.2284 0.6884
vn -0.5045 0.7006 0.5045
vn 0.5045 0.7006 0.5045
vn -0.1023 0.9895 0.1023
vn 0.7038 -0.0963 -0.7038
vn 0.7063 0.0492 -0.7063
vn 0.6884 0.2284 -0.6884
vn 0.5045 0.7006 -0.5045
vn 0.1023 0.9895 0.1023
vn -0.7063 0.0492 -0.7063
vn -0.7038 -0.0963 -0.7038
vn -0.6884 0.2284 -0.6884
vn -0.5045 0.7006 -0.5045
vn -0.1023 0.9895 -0.1023
vn 0.1023 0.9895 -0.1023
usemtl Default_OBJ.003
s off
f 1/1/1 2/2/1 3/3/1
f 4/4/2 3/5/2 5/6/2
f 6/7/3 7/8/3 2/9/3
f 8/10/4 5/11/4 7/12/4
f 9/13/5 10/14/5 11/15/5
f 1/1/1 6/16/1 2/2/1
f 4/4/2 1/17/2 3/5/2
f 6/7/3 8/18/3 7/8/3
f 8/10/4 4/19/4 5/11/4
f 9/13/5 12/20/5 10/14/5
s 1
f 4/4/6 13/21/7 1/17/8
f 14/22/9 15/23/10 13/21/7
f 16/24/11 17/25/12 15/26/10
f 18/27/13 19/28/14 17/25/12
f 8/10/15 14/29/9 4/19/6
f 20/30/16 16/31/11 14/29/9
f 21/32/17 18/27/13 16/33/11
f 22/34/18 23/35/19 18/27/13
f 1/1/8 24/36/20 6/16/21
f 13/37/7 25/38/22 24/36/20
f 15/39/10 26/40/23 25/41/22
f 17/25/12 27/42/24 26/40/23
f 6/7/21 20/43/16 8/18/15
f 24/44/20 21/45/17 20/43/16
f 25/46/22 22/34/18 21/47/17
f 26/40/23 28/48/25 22/34/18
f 23/35/19 27/42/24 19/28/14
f 4/4/6 14/22/9 13/21/7
f 14/22/9 16/49/11 15/23/10
f 16/24/11 18/27/13 17/25/12
f 18/27/13 23/35/19 19/28/14
f 8/10/15 20/30/16 14/29/9
f 20/30/16 21/50/17 16/31/11
f 21/32/17 22/34/18 18/27/13
f 22/34/18 28/48/25 23/35/19
f 1/1/8 13/37/7 24/36/20
f 13/37/7 15/51/10 25/38/22
f 15/39/10 17/25/12 26/40/23
f 17/25/12 19/28/14 27/42/24
f 6/7/21 24/44/20 20/43/16
f 24/44/20 25/52/22 21/45/17
f 25/46/22 26/40/23 22/34/18
f 26/40/23 27/42/24 28/48/25
f 23/35/19 28/48/25 27/42/24
